<?xml version="1.0" standalone="no"?>
<!DOCTYPE svg PUBLIC "-//W3C//DTD SVG 20010904//EN"
 "http://www.w3.org/TR/2001/REC-SVG-20010904/DTD/svg10.dtd">
<svg version="1.0" xmlns="http://www.w3.org/2000/svg"
 width="100.000000pt" height="100.000000pt" viewBox="0 0 100.000000 100.000000"
 preserveAspectRatio="xMidYMid meet">
<metadata>
Created by potrace 1.13, written by Peter Selinger 2001-2015
</metadata>
<g transform="translate(0.000000,100.000000) scale(0.100000,-0.100000)"
fill="#000000" stroke="none">
<path d="M333 961 c-24 -21 -43 -46 -43 -55 0 -9 -4 -16 -9 -16 -5 0 -14 -23
-21 -50 -10 -40 -10 -73 0 -153 7 -56 17 -108 22 -115 7 -8 6 -12 -3 -12 -9 0
-10 -3 -4 -8 18 -13 55 -71 55 -87 0 -8 5 -15 11 -15 7 0 8 7 3 18 -4 9 -9 35
-12 57 -4 39 -4 40 16 22 11 -10 22 -31 26 -48 5 -27 26 -42 26 -19 0 6 -4 10
-10 10 -13 0 -13 47 -1 54 5 4 11 0 14 -6 3 -10 7 -10 20 0 9 8 20 11 26 8 12
-8 42 4 36 14 -3 5 4 6 16 3 17 -5 20 -11 15 -36 -3 -17 -15 -36 -26 -44 -11
-8 -20 -20 -19 -26 0 -9 2 -9 6 1 2 6 10 12 17 12 7 0 20 18 29 40 15 40 37
54 37 25 0 -8 6 -15 14 -15 8 0 12 7 10 18 -5 21 12 50 23 39 4 -5 1 -12 -7
-17 -12 -8 -11 -10 7 -10 34 0 52 10 46 27 -4 11 1 14 23 11 26 -3 29 -7 32
-40 2 -21 7 -38 11 -38 17 0 31 81 31 174 0 57 4 96 10 96 15 0 12 19 -11 67
-15 31 -28 45 -47 49 -46 9 -57 20 -62 60 l-5 39 -130 3 -130 2 -42 -39z m268
-116 c57 -7 94 -43 105 -100 3 -22 10 -44 14 -50 4 -5 10 -22 12 -37 10 -53 0
-56 -209 -63 l-193 -6 0 34 c0 19 7 40 15 47 17 14 20 75 5 85 -17 10 -11 32
14 56 25 24 127 50 171 43 11 -2 41 -6 66 -9z"/>
<path d="M265 490 c6 -37 5 -40 -17 -40 -30 0 -33 -38 -4 -61 19 -15 18 -16
-22 -23 -23 -3 -42 -11 -42 -16 0 -6 -8 -10 -18 -10 -27 0 -26 -109 1 -129 18
-12 18 -15 3 -23 -12 -7 -22 -2 -41 19 -13 15 -22 34 -20 41 3 8 -4 16 -15 19
-11 3 -20 10 -20 16 0 6 -8 4 -17 -6 -16 -16 -16 -18 2 -32 11 -8 26 -15 33
-15 29 0 0 -40 -30 -40 -11 0 -18 -7 -18 -18 0 -11 -9 -27 -20 -37 -16 -14
-20 -31 -20 -77 l0 -58 451 0 452 0 -7 46 c-3 26 -6 57 -6 70 0 30 -55 92 -89
100 -14 4 -32 12 -39 17 -8 6 -37 19 -65 29 -54 19 -77 12 -77 -23 0 -11 -4
-19 -10 -19 -5 0 -10 -6 -10 -13 0 -8 -15 -31 -34 -53 -29 -33 -37 -37 -53
-28 -10 6 -29 17 -42 25 -46 27 -61 43 -67 76 -3 18 -10 33 -15 33 -5 0 -9 9
-9 20 0 32 14 23 33 -20 9 -22 21 -40 27 -40 5 0 10 -7 10 -15 0 -13 3 -13 20
-3 11 7 16 14 10 16 -6 2 -7 8 -4 14 3 5 -1 15 -10 21 -9 7 -22 24 -29 37 -7
14 -22 29 -34 35 -18 8 -32 40 -37 87 -1 4 -7 13 -13 20 -10 10 -13 6 -13 -20
0 -31 -1 -31 -20 -15 -12 11 -20 30 -20 50 0 19 -6 36 -16 41 -11 6 -13 11 -5
16 16 10 13 26 -5 26 -13 0 -15 -7 -9 -40z"/>
</g>
</svg>
